<svg xmlns="http://www.w3.org/2000/svg" xmlns:xlink="http://www.w3.org/1999/xlink" xmlns:lucid="lucid" width="1620" height="778"><g transform="translate(-295 -413)" lucid:page-tab-id="~QxNv6wkKDEo"><path d="M0 0h2213.33v1813.33H0z" fill="#fff"/><path d="M1880 660c0 44.18-35.82 80-80 80s-80-35.82-80-80 35.82-80 80-80 80 35.82 80 80z" stroke="#000" stroke-opacity="0" fill="#8b90ff"/><use xlink:href="#a" transform="matrix(1,0,0,1,1725,585) translate(54.44444444444444 76.9375)"/><path d="M1870 660.13c0 38.66-31.34 70-70 70s-70-31.34-70-70 31.34-70 70-70 70 31.34 70 70z" stroke="#333" fill-opacity="0"/><path d="M1200 660c0 44.18-35.82 80-80 80s-80-35.82-80-80 35.82-80 80-80 80 35.82 80 80z" stroke="#000" stroke-opacity="0" fill="#8b90ff"/><use xlink:href="#b" transform="matrix(1,0,0,1,1045,585) translate(62.77777777777778 76.9375)"/><path d="M840 660c0 44.18-35.82 80-80 80s-80-35.82-80-80 35.82-80 80-80 80 35.82 80 80z" stroke="#000" stroke-opacity="0" fill="#8b90ff"/><use xlink:href="#c" transform="matrix(1,0,0,1,685,585) translate(62.77777777777778 76.9375)"/><path d="M560.53 480.25l-4.44.35-10.64 1.28-10.13 1.65-9.6 2-9.07 2.26-8.5 2.5-8 2.73-7.46 2.9-7 3.07-6.5 3.2-6.1 3.3-5.7 3.4-5.33 3.5-4.98 3.58-4.68 3.65-4.36 3.72-4.1 3.8-3.83 3.87-3.6 3.95-3.36 4.03-3.16 4.1-2.95 4.2-2.76 4.32-2.6 4.4-2.4 4.55-2.22 4.67-1.87 4.36-.9-.4 1.86-4.38 2.25-4.7 2.43-4.58 2.6-4.45 2.8-4.35 2.98-4.23 3.2-4.15 3.4-4.06 3.6-3.97 3.87-3.9 4.12-3.82 4.4-3.74 4.68-3.68 5.02-3.6 5.36-3.52 5.73-3.43 6.13-3.32 6.56-3.2 7-3.08 7.52-2.93 8.03-2.75 8.55-2.53 9.1-2.28 9.64-2 10.18-1.65 10.67-1.3 4.53-.35zm65.1 1.3l11.34 1.98 10.9 2.38 10.36 2.73 9.75 3 9.08 3.2 8.4 3.4 7.72 3.48 7.06 3.56 6.44 3.58 5.85 3.6 5.3 3.56 4.83 3.54 4.36 3.5 3.95 3.44 3.58 3.4 3.24 3.34 2.92 3.3 2.65 3.23 2.4 3.2 2.16 3.14 1.95 3.1 1.76 3.1 1.58 3.05 1.4 3.03 1.25 3.03.92 2.5-.95.34-.9-2.47-1.24-2.98-1.38-3-1.56-3.03-1.74-3.05-1.93-3.08-2.15-3.1-2.37-3.17-2.63-3.2-2.9-3.27-3.2-3.3-3.55-3.38-3.92-3.42-4.33-3.47-4.78-3.5-5.28-3.56-5.83-3.56-6.4-3.56-7.03-3.53-7.68-3.46-8.36-3.36-9.04-3.2-9.7-3-10.32-2.7-10.86-2.37-11.3-1.97-2.78-.36v-1z" stroke="#333" stroke-width=".05" fill="#333"/><path d="M415.22 569.6l-.13.3-.55-.03H414l.3-.67z" fill="#333"/><path d="M415.25 569.58l-.14.33h-1.13l.3-.74zm-1.2.27h1.02l.1-.25-.86-.37z" stroke="#333" stroke-width=".05" fill="#333"/><path d="M759.64 578.42l-7.73-12.85 9.04-2.1z" fill="#333"/><path d="M760 580l-8.88-14.76 10.38-2.4zm-7.3-14.1l6.57 10.95 1.1-12.73z" stroke="#333" stroke-width=".05" fill="#333"/><use xlink:href="#d" transform="matrix(1,0,0,1,560.5341526072792,466.94560766785116) translate(0 16)"/><path d="M760.5 740.5l-.07 2.94-.2 3.32-.35 3.22-.46 3.13-.58 3.07-.7 3-.82 2.92-.94 2.88-1.06 2.84-1.18 2.82-1.32 2.78-1.44 2.77-1.6 2.75-1.74 2.75-1.9 2.75-2.1 2.75-2.3 2.76-2.5 2.78-2.72 2.8-3 2.8-3.28 2.83-3.6 2.85-3.96 2.88-4.36 2.9-4.8 2.9-5.3 2.9-5.84 2.9-6.46 2.88-7.13 2.82-7.88 2.74-8.66 2.6-9.48 2.44-10.34 2.2-11.18 1.88-11.97 1.5-12.66 1.07-13.18.55h-4v-1h3.98l13.14-.55 12.6-1.05 11.93-1.5 11.15-1.9 10.3-2.17 9.45-2.4 8.6-2.6 7.84-2.74 7.1-2.8 6.4-2.86 5.82-2.88 5.26-2.9 4.77-2.87 4.3-2.87 3.93-2.85 3.57-2.83 3.25-2.8 2.97-2.78 2.7-2.77 2.47-2.74 2.25-2.72 2.07-2.72 1.9-2.7 1.7-2.73 1.58-2.72 1.43-2.72 1.3-2.75 1.16-2.78 1.03-2.8.93-2.85.8-2.9.7-2.94.57-3 .46-3.1.32-3.18.2-3.28.07-2.9zm-343.05 8.67l.85 3.03.97 3 1.1 2.97 1.26 2.97 1.4 2.95 1.53 2.95 1.7 2.96 1.9 3 2.08 2.98 2.3 3.02 2.52 3.05 2.78 3.08 3.06 3.13 3.37 3.16 3.72 3.2 4.1 3.27 4.54 3.3 5.02 3.32 5.56 3.37 6.16 3.37 6.82 3.4 7.54 3.34 8.3 3.3 9.15 3.18 10 3.02 10.83 2.78 11.67 2.48 12.4 2.1 12.97 1.63 8.37.7v1l-8.47-.72-13.02-1.64-12.44-2.1-11.7-2.5-10.88-2.78-10.04-3.03-9.18-3.2-8.35-3.3-7.58-3.37-6.85-3.4-6.2-3.4-5.6-3.4-5.05-3.35-4.58-3.3-4.15-3.3-3.75-3.23-3.4-3.2-3.1-3.15-2.8-3.12-2.55-3.08-2.32-3.05-2.1-3.03-1.9-3-1.75-3-1.56-3-1.4-3-1.27-3-1.12-3-1-3.05-.85-3.08-.72-3.1.97-.23z" stroke="#333" stroke-width=".05" fill="#333"/><path d="M760 740h.5v.53l-1-.02V740z" fill="#333"/><path d="M760 739.97h.53l-.02.58-1.04-.02.02-.57zm-.5.5l.96.03v-.48h-.94z" stroke="#333" stroke-width=".05" fill="#333"/><path d="M420.8 745.2l-9.23.94 3.15-14.66z" fill="#333"/><path d="M421.53 745.62l-10.6 1.1 3.62-16.85zm-9.32-.04l7.86-.8-5.17-11.7z" stroke="#333" stroke-width=".05" fill="#333"/><use xlink:href="#e" transform="matrix(1,0,0,1,571.4369540517428,826.3575610450405) translate(0.005000000000000782 16.177777777777777)"/><path d="M1580 660c0 44.18-35.82 80-80 80s-80-35.82-80-80 35.82-80 80-80 80 35.82 80 80z" stroke="#000" stroke-opacity="0" fill="#8b90ff"/><use xlink:href="#b" transform="matrix(1,0,0,1,1425,585) translate(62.77777777777778 76.9375)"/><path d="M918.7 473.18l-13.32 1.12-13.02 1.64-12.3 2.08-11.45 2.43-10.57 2.7-9.68 2.93-8.82 3.07-8 3.17-7.26 3.22-6.56 3.26-5.92 3.25-5.36 3.25-4.86 3.22-4.4 3.2-3.98 3.15-3.62 3.13-3.3 3.1-3 3.05-2.72 3.02-2.5 3-2.25 3-2.08 2.96-1.88 2.96-1.7 2.95-1.55 2.96-1.4 2.98-1.27 2.98-1.1 3-1 3.06-.86 3.08-.74 3.13-.6 3.2-.5 3.25-.34 3.34-.23 3.44-.06 3.05h-1l.07-3.1.22-3.46.35-3.38.5-3.3.6-3.24.75-3.17.87-3.12 1-3.1 1.13-3.03 1.28-3.03 1.4-3 1.58-3 1.73-3 1.9-3 2.08-3 2.3-3 2.5-3.05 2.76-3.06 3.02-3.1 3.33-3.1 3.64-3.16 4.02-3.18 4.43-3.22 4.88-3.25 5.4-3.26 5.96-3.3 6.6-3.26 7.3-3.24 8.04-3.2 8.86-3.07 9.73-2.93 10.6-2.73 11.5-2.44 12.34-2.08 13.08-1.65 13.43-1.12zm56.05.13l13.07 1.66 12.33 2.08 11.5 2.44 10.6 2.72 9.73 2.94 8.86 3.08 8.05 3.18 7.28 3.25 6.6 3.27 5.96 3.27 5.4 3.26 4.88 3.25 4.43 3.22 4.02 3.2 3.65 3.14 3.32 3.12 3.03 3.1 2.75 3.05 2.52 3.03 2.3 3.02 2.08 3 1.9 3 1.72 3 1.57 3 1.43 3 1.27 3.02 1.13 3.05 1 3.08.87 3.13.75 3.17.1.6-.97.2-.1-.6-.74-3.12-.86-3.08-1-3.04-1.1-3-1.27-3-1.38-2.96-1.55-2.96-1.7-2.96-1.9-2.96-2.05-2.97-2.27-2.98-2.48-3.02-2.73-3.03-3-3.06-3.3-3.1-3.6-3.12-4-3.16-4.4-3.2-4.84-3.2-5.36-3.26-5.93-3.26-6.55-3.25-7.25-3.22-8-3.17-8.83-3.07-9.68-2.93-10.58-2.72-11.46-2.43-12.28-2.07-13.03-1.65-13.36-1.12v-1z" stroke="#333" stroke-width=".05" fill="#333"/><path d="M760.5 579.5v.52l-.5-.02h-.5v-.53z" fill="#333"/><path d="M760.54 579.47l-.02.57h-1.05l.02-.6zm-1 .5h.46l.48.02v-.48l-.94-.02z" stroke="#333" stroke-width=".05" fill="#333"/><path d="M1119.84 578.4l-6.03-13.74 9.23-.93z" fill="#333"/><path d="M1120 580l-6.93-15.77 10.6-1.06zm-5.46-14.9l5.14 11.68 2.72-12.48z" stroke="#333" stroke-width=".05" fill="#333"/><use xlink:href="#f" transform="matrix(1,0,0,1,918.7126514951354,459.9406086842692) translate(0.004999999999999005 16.177777777777777)"/><path d="M416.32 740.88l.96 6.5 1.2 6.36 1.5 6.28 1.72 6.2 2 6.13 2.25 6.1 2.55 6.05 2.84 6.04 3.16 6.04 3.5 6.05 3.85 6.08 4.25 6.13 4.68 6.16 5.15 6.22 5.67 6.3 6.24 6.36 6.88 6.46 7.58 6.54 8.38 6.63 9.25 6.73 10.23 6.8 11.33 6.85 12.52 6.9 13.88 6.88 15.34 6.82 16.92 6.7 18.6 6.47 20.36 6.14 22.1 5.66 23.75 5.05 25.27 4.28 26.47 3.34 27.32 2.3 27.66 1.15h27.52l26.9-1.12 25.82-2.16 19.5-2.47v1l-19.4 2.45-25.87 2.17-26.93 1.12h-27.56l-27.7-1.16-27.35-2.3-26.5-3.33-25.3-4.28-23.82-5.07-22.13-5.68-20.4-6.15-18.63-6.5-16.97-6.7-15.38-6.84-13.9-6.9-12.58-6.9-11.38-6.9-10.26-6.8-9.3-6.75-8.4-6.65-7.6-6.57-6.92-6.5-6.27-6.4-5.7-6.3-5.17-6.27-4.7-6.2-4.28-6.14-3.88-6.1-3.52-6.1-3.17-6.08-2.87-6.08-2.56-6.1-2.28-6.12-2-6.18-1.74-6.23-1.48-6.32-1.23-6.4-.97-6.54-.43-4.1 1-.1zm704.17-.36l-.15 6.48-.42 6.76-.7 6.56-.93 6.38-1.2 6.22-1.42 6.1-1.67 5.97-1.9 5.87-2.15 5.8-2.42 5.73-2.67 5.7-2.95 5.64-3.24 5.62-3.57 5.6-3.9 5.62-4.27 5.63-4.67 5.65-5.1 5.66-5.6 5.72-6.12 5.74-6.7 5.8-7.37 5.83-8.1 5.87-8.92 5.92-9.83 5.94-10.84 5.95-11.98 5.94-13.23 5.88-14.6 5.78-16.13 5.6-17.73 5.35-19.42 5-21.12 4.47v-1.02l20.9-4.44 19.38-4.97 17.7-5.34 16.07-5.6 14.58-5.76 13.2-5.87 11.93-5.92 10.82-5.93 9.8-5.93 8.88-5.9 8.06-5.85 7.34-5.82 6.67-5.76 6.1-5.72 5.55-5.67 5.08-5.64 4.64-5.62 4.24-5.58 3.88-5.58 3.54-5.58 3.23-5.6 2.93-5.6 2.66-5.64 2.4-5.7 2.14-5.76 1.9-5.84 1.65-5.94 1.43-6.05 1.18-6.17.95-6.34.68-6.52.42-6.72.14-6.46z" stroke="#333" stroke-width=".05" fill="#333"/><path d="M1120 740h.5v.53l-1-.02V740z" fill="#333"/><path d="M1120 739.97h.53l-.02.6-1.04-.03.02-.58zm-.5.52h.96v-.48h-.94z" stroke="#333" stroke-width=".05" fill="#333"/><path d="M420 736.12l-9.26.48 3.9-14.48z" fill="#333"/><path d="M420.7 736.6l-10.62.54 4.47-16.64zm-9.3-.53l7.9-.4-4.58-11.94z" stroke="#333" stroke-width=".05" fill="#333"/><use xlink:href="#e" transform="matrix(1,0,0,1,871.4330897029444,922.0459261089308) translate(0.005000000000000782 16.177777777777777)"/><path d="M1278.57 467.97l-5.1.43-13.77 1.73-12.97 2.2-12.1 2.56-11.16 2.85-10.22 3.1-9.32 3.23-8.45 3.34-7.66 3.4-6.92 3.44-6.26 3.44-5.66 3.43-5.12 3.4-4.65 3.37-4.2 3.33-3.82 3.3-3.48 3.26-3.16 3.22-2.88 3.2-2.63 3.17-2.4 3.14-2.17 3.14-1.98 3.13-1.8 3.13-1.64 3.12-1.48 3.14-1.32 3.14-1.18 3.18-1.05 3.2-.9 3.27-.77 3.3-.64 3.36-.52 3.44-.37 3.53-.22 3.63-.07 3.25h-1l.08-3.28.23-3.67.38-3.57.52-3.48.65-3.4.78-3.36.93-3.3 1.05-3.25 1.2-3.23 1.35-3.2 1.5-3.16 1.65-3.15 1.82-3.16 2-3.17 2.2-3.17 2.43-3.2 2.65-3.2 2.9-3.22 3.2-3.26 3.5-3.3 3.87-3.32 4.24-3.36 4.68-3.4 5.16-3.42 5.7-3.45 6.3-3.46 6.96-3.45 7.7-3.42 8.5-3.36 9.34-3.25 10.26-3.1 11.2-2.88 12.14-2.58 13.02-2.2 13.8-1.74 5.2-.43zm68.1-.56l13.8 1.75 13.02 2.2 12.12 2.57 11.2 2.88 10.26 3.1 9.36 3.25 8.5 3.36 7.68 3.43 6.96 3.45 6.3 3.46 5.7 3.45 5.15 3.4 4.67 3.4 4.24 3.37 3.86 3.33 3.5 3.3 3.2 3.25 2.9 3.23 2.66 3.2 2.4 3.18 2.22 3.17 2 3.16 1.83 3.15 1.66 3.16 1.5 3.2 1.33 3.18 1.2 3.22 1.05 3.25.92 3.3.78 3.34.3 1.52-1 .2-.28-1.52-.77-3.3-.9-3.26-1.05-3.2-1.2-3.2-1.3-3.15-1.5-3.14-1.62-3.13-1.8-3.12-2-3.1-2.17-3.15-2.4-3.15-2.6-3.17-2.9-3.2-3.16-3.23-3.47-3.26-3.82-3.3-4.2-3.33-4.64-3.36-5.13-3.4-5.66-3.43-6.25-3.43-6.93-3.44-7.66-3.4-8.45-3.35-9.32-3.24-10.23-3.08-11.16-2.86-12.1-2.57-12.97-2.2-13.75-1.73-5.15-.43v-1z" stroke="#333" stroke-width=".05" fill="#333"/><path d="M1120.5 579.5v.52l-.5-.02h-.5v-.53z" fill="#333"/><path d="M1120.54 579.47l-.02.57h-1.05l.02-.6zm-1 .5h.46l.48.02v-.48l-.94-.02z" stroke="#333" stroke-width=".05" fill="#333"/><path d="M1499.85 578.4l-5.97-13.77 9.23-.88z" fill="#333"/><path d="M1500 580l-6.85-15.8 10.6-1zm-5.38-14.94l5.07 11.72 2.77-12.47z" stroke="#333" stroke-width=".05" fill="#333"/><use xlink:href="#g" transform="matrix(1,0,0,1,1278.5735738347144,453.94471657413595) translate(0.004999999999999005 16.177777777777777)"/><path d="M1500.5 740.5l-.08 3.28-.23 3.67-.38 3.57-.52 3.48-.65 3.4-.78 3.36-.93 3.3-1.05 3.25-1.2 3.23-1.35 3.2-1.5 3.16-1.65 3.15-1.82 3.16-2 3.17-2.2 3.17-2.43 3.2-2.65 3.2-2.9 3.22-3.2 3.26-3.5 3.3-3.87 3.32-4.24 3.36-4.68 3.4-5.16 3.42-5.7 3.45-6.3 3.46-6.96 3.45-7.7 3.42-8.5 3.36-9.34 3.25-10.26 3.1-11.2 2.88-12.14 2.58-13.02 2.2-13.8 1.74-14.4 1.2-14.8.62h-14.92l-14.8-.62-.73-.06v-1l.78.06 14.76.62h14.9l14.74-.6 14.36-1.22 13.76-1.73 12.97-2.2 12.1-2.56 11.16-2.85 10.22-3.1 9.32-3.23 8.45-3.34 7.66-3.4 6.92-3.44 6.26-3.44 5.66-3.43 5.12-3.4 4.65-3.37 4.2-3.33 3.82-3.3 3.48-3.26 3.16-3.22 2.88-3.2 2.63-3.17 2.4-3.14 2.17-3.14 1.98-3.13 1.8-3.13 1.64-3.12 1.48-3.14 1.32-3.14 1.18-3.18 1.05-3.2.9-3.27.77-3.3.64-3.36.52-3.44.37-3.53.22-3.63.07-3.25zm-378.17 17.2l.77 3.3.9 3.26 1.05 3.2 1.2 3.2 1.3 3.15 1.5 3.14 1.62 3.13 1.8 3.12 2 3.1 2.17 3.15 2.4 3.15 2.6 3.17 2.9 3.2 3.16 3.23 3.47 3.26 3.82 3.3 4.2 3.33 4.64 3.36 5.13 3.4 5.66 3.43 6.25 3.43 6.93 3.44 7.66 3.4 8.45 3.35 9.32 3.24 10.23 3.08 11.16 2.86 9.8 2.08v1.03l-10.02-2.12-11.2-2.88-10.26-3.1-9.36-3.25-8.5-3.36-7.68-3.43-6.96-3.45-6.3-3.46-5.7-3.45-5.15-3.4-4.67-3.4-4.24-3.37-3.86-3.33-3.5-3.3-3.2-3.25-2.9-3.23-2.66-3.2-2.4-3.18-2.22-3.17-2-3.16-1.83-3.15-1.66-3.16-1.5-3.2-1.33-3.18-1.2-3.22-1.05-3.25-.92-3.3-.78-3.34-.3-1.52 1-.2z" stroke="#333" stroke-width=".05" fill="#333"/><path d="M1500 740h.5v.53l-1-.02V740z" fill="#333"/><path d="M1500 739.97h.53l-.02.58-1.04-.02.02-.57zm-.5.5l.96.03v-.48h-.94z" stroke="#333" stroke-width=".05" fill="#333"/><path d="M1126.12 755.37l-9.23.88 3.25-14.64z" fill="#333"/><path d="M1126.85 755.8l-10.6 1L1120 740zm-9.32-.1l7.85-.76-5.07-11.72z" stroke="#333" stroke-width=".05" fill="#333"/><use xlink:href="#f" transform="matrix(1,0,0,1,1244.409941200745,838.9942040161263) translate(0.004999999999999005 16.177777777777777)"/><path d="M1500.5 740.52l-.22 10.25-.66 10.4-1.06 10.14-1.46 9.9-1.84 9.64-2.22 9.47-2.6 9.32-3 9.18-3.36 9.07-3.78 9-4.2 8.9-4.65 8.9-5.12 8.87-5.63 8.87-6.18 8.9-6.77 8.9-7.42 8.97-8.13 9.03-8.92 9.1-9.8 9.2-10.74 9.27-11.82 9.36-13.02 9.46-14.36 9.52-15.85 9.6-17.52 9.6-19.35 9.6-21.4 9.52-23.6 9.35-26.04 9.04-28.6 8.62-31.26 8.02-33.93 7.2-36.5 6.17-38.8 4.9-40.7 3.4-42 1.76h-18.54v-1h18.5l41.97-1.75 40.66-3.4 38.76-4.9 36.46-6.15 33.9-7.2 31.2-8 28.56-8.6 26-9.05 23.58-9.33 21.35-9.5 19.32-9.58 17.47-9.6 15.8-9.56 14.33-9.5 12.98-9.44 11.8-9.35 10.73-9.25 9.75-9.16 8.9-9.08 8.1-9 7.4-8.93 6.73-8.9 6.17-8.85 5.6-8.83 5.1-8.83 4.63-8.86 4.2-8.9 3.75-8.94 3.36-9.03 2.98-9.14 2.6-9.27 2.2-9.43 1.83-9.6 1.46-9.84 1.06-10.1.66-10.38.2-10.22zM415.92 751l1.07 10.14 1.46 9.9 1.85 9.72 2.25 9.55 2.62 9.4 3.02 9.3 3.4 9.2 3.85 9.14 4.28 9.1 4.75 9.07 5.24 9.08 5.77 9.1 6.33 9.13 6.98 9.2 7.66 9.24 8.4 9.34 9.25 9.43 10.18 9.55 11.18 9.66L527.8 939l13.6 9.87 15 9.98 16.62 10.05 18.37 10.1 20.3 10.07 22.47 10 24.8 9.8 27.3 9.5 29.93 9.04 32.62 8.36 35.26 7.5 37.72 6.36 39.83 5.03 41.43 3.48 38.37 1.6v1l-38.43-1.6-41.47-3.5-39.87-5.02-37.76-6.37-35.3-7.5-32.67-8.38-29.97-9.04-27.34-9.5-24.84-9.83-22.5-10-20.36-10.1-18.4-10.12-16.64-10.08-15.06-10-13.63-9.9-12.37-9.8-11.22-9.67-10.2-9.57-9.26-9.47-8.43-9.36-7.68-9.3-7-9.2-6.36-9.17-5.8-9.13-5.26-9.1-4.76-9.12-4.3-9.13-3.86-9.18-3.43-9.24-3.03-9.33-2.64-9.44-2.25-9.6-1.86-9.74-1.47-9.96-1.07-10.18-.3-4.8 1-.07z" stroke="#333" stroke-width=".05" fill="#333"/><path d="M1500 740h.5v.54l-1-.02v-.54z" fill="#333"/><path d="M1500 739.97h.53l-.02.6-1.04-.03.02-.58zm-.5.52h.96v-.48h-.94z" stroke="#333" stroke-width=".05" fill="#333"/><path d="M419.75 745.58l-9.27.33 4.13-14.4z" fill="#333"/><path d="M420.45 746.05l-10.64.38 4.75-16.56zm-9.3-.67l7.9-.28-4.38-12z" stroke="#333" stroke-width=".05" fill="#333"/><use xlink:href="#e" transform="matrix(1,0,0,1,941.4298713437474,1048.2697922698028) translate(0.005000000000000782 16.177777777777777)"/><path d="M494.55 649.87c0 44.18-35.8 80-80 80-44.18 0-80-35.82-80-80s35.82-80 80-80c44.2 0 80 35.82 80 80z" stroke="#000" stroke-opacity="0" fill="#8b90ff"/><use xlink:href="#h" transform="matrix(1,0,0,1,339.55420907374287,574.8689169857764) translate(53.91666666666667 76.9375)"/><path d="M484.55 650c0 38.66-31.34 70-70 70s-70-31.34-70-70 31.34-70 70-70 70 31.34 70 70z" stroke="#333" fill-opacity="0"/><path d="M1610.96 493.28l-.65.1-10.23 1.72-9.54 2.02-8.8 2.26-8.08 2.43-7.35 2.57-6.67 2.64-6.04 2.7-5.47 2.7-4.94 2.72-4.48 2.7-4.04 2.68-3.66 2.66-3.32 2.63-3 2.6-2.76 2.57-2.5 2.54-2.26 2.53-2.07 2.5-1.88 2.5-1.72 2.46-1.56 2.45-1.42 2.46-1.3 2.48-1.15 2.47-1.05 2.48-.93 2.5-.83 2.54-.72 2.57-.6 2.6-.52 2.66-.4 2.7-.3 2.8-.17 2.85-.05 2.46h-1l.06-2.5.18-2.9.3-2.8.4-2.77.52-2.7.62-2.64.73-2.62.85-2.57.94-2.53 1.05-2.53 1.2-2.5 1.3-2.5 1.44-2.5 1.57-2.5 1.74-2.5 1.93-2.53 2.1-2.52 2.3-2.55 2.52-2.58 2.77-2.6 3.04-2.63 3.36-2.66 3.7-2.68 4.07-2.7 4.5-2.73 4.97-2.73 5.5-2.73 6.07-2.7 6.7-2.67 7.4-2.57 8.1-2.44 8.86-2.27 9.58-2.04 10.28-1.72.8-.1zm78.9-.9l10.28 1.74 9.58 2.03 8.85 2.27 8.1 2.45 7.4 2.57 6.7 2.65 6.08 2.7 5.5 2.72 4.97 2.74 4.5 2.72 4.08 2.7 3.7 2.7 3.34 2.65 3.05 2.63 2.76 2.6 2.52 2.57 2.3 2.56 2.1 2.52 1.9 2.52 1.75 2.5 1.6 2.5 1.43 2.5 1.3 2.5 1.2 2.5 1.05 2.53.96 2.55.83 2.57.72 2.6.1.46-.97.23-.1-.46-.72-2.56-.82-2.54-.92-2.5-1.05-2.5-1.16-2.46-1.3-2.46-1.4-2.46-1.57-2.46-1.72-2.48-1.88-2.48-2.07-2.5-2.27-2.52-2.5-2.55-2.74-2.57-3-2.6-3.33-2.63-3.67-2.66-4.04-2.67-4.48-2.7-4.94-2.72-5.46-2.7-6.03-2.7-6.68-2.62-7.35-2.56-8.07-2.43-8.8-2.27-9.55-2.03-10.23-1.73-.68-.08v-1.02z" stroke="#333" stroke-width=".05" fill="#333"/><path d="M1500.5 579.5v.52l-.5-.02h-.5v-.53z" fill="#333"/><path d="M1500.54 579.47l-.02.57h-1.05l.02-.6zm-1 .5h.46l.48.02v-.48l-.94-.02z" stroke="#333" stroke-width=".05" fill="#333"/><path d="M1799.8 578.4l-6.3-13.6 9.2-1.12z" fill="#333"/><path d="M1800 580l-7.25-15.63 10.57-1.27zm-5.76-14.8l5.37 11.6 2.47-12.55z" stroke="#333" stroke-width=".05" fill="#333"/><use xlink:href="#i" transform="matrix(1,0,0,1,1610.9616745998558,477.92828501466886) translate(0.005000000000002558 16.177777777777777)"/><path d="M1800.5 740.53l-.3 13.2-.82 13.3-1.36 12.93-1.86 12.6-2.36 12.34-2.83 12.1-3.32 11.9-3.82 11.72-4.3 11.6-4.84 11.5-5.38 11.4-5.95 11.38-6.55 11.34-7.2 11.35-7.9 11.36-8.68 11.42-9.5 11.48-10.42 11.57-11.43 11.66-12.55 11.76-13.78 11.9-15.16 12-16.7 12.13-18.4 12.2-20.34 12.32-22.46 12.34-24.83 12.3-27.45 12.22-30.3 12-33.4 11.6-36.7 11.07-40.07 10.28-43.5 9.23-46.76 7.9-49.7 6.27-52.06 4.36-53.67 2.23h-24.4v-1h24.38l53.62-2.24 52.02-4.37 49.64-6.26 46.72-7.9 43.46-9.2 40.04-10.28 36.65-11.06 33.37-11.6 30.26-11.98 27.4-12.2 24.8-12.3 22.43-12.3 20.3-12.3 18.38-12.2 16.66-12.1 15.13-11.98 13.75-11.86 12.5-11.74 11.4-11.64 10.4-11.53 9.47-11.44 8.65-11.4 7.88-11.32 7.18-11.32 6.53-11.3 5.92-11.34 5.36-11.38 4.8-11.45 4.3-11.56 3.8-11.7 3.32-11.85 2.83-12.05 2.34-12.3 1.86-12.56 1.35-12.9.83-13.25.3-13.2zm-1384.33 16.3l1.36 12.95 1.87 12.65 2.36 12.4 2.85 12.16 3.36 11.98 3.85 11.84 4.37 11.73 4.9 11.64 5.44 11.57 6.06 11.56 6.67 11.55 7.34 11.57 8.08 11.62 8.87 11.68 9.74 11.77 10.7 11.88 11.74 12 12.92 12.12 14.2 12.27 15.68 12.4 17.27 12.55 19.08 12.67 21.1 12.76 23.3 12.8 25.8 12.8 28.52 12.7 31.5 12.46 34.66 12.06 38 11.47 41.46 10.63 44.82 9.52 47.98 8.1 50.7 6.4 52.8 4.44 54.02 2.27h1.9v1h-1.92l-54.08-2.27-52.82-4.43-50.75-6.4-48.02-8.12-44.87-9.52-41.48-10.64-38.06-11.5-34.7-12.06-31.53-12.48-28.57-12.7-25.83-12.82-23.36-12.83-21.12-12.8-19.12-12.68L557.9 997l-15.7-12.44-14.25-12.3L515 960.1l-11.78-12.02-10.72-11.9-9.77-11.8-8.9-11.72-8.1-11.65-7.36-11.6-6.7-11.6-6.05-11.58-5.47-11.63-4.9-11.7-4.4-11.75-3.85-11.88-3.35-12.03-2.87-12.2-2.37-12.44-1.86-12.7-1.36-12.98-.67-10.64 1-.07z" stroke="#333" stroke-width=".05" fill="#333"/><path d="M1800 740h.5v.54l-1-.02v-.54z" fill="#333"/><path d="M1800 739.97h.53l-.02.6-1.04-.03.02-.58zm-.5.52h.96v-.48H1799.54z" stroke="#333" stroke-width=".05" fill="#333"/><path d="M419.63 745.62l-9.27.25 4.24-14.38z" fill="#333"/><path d="M420.33 746.1l-10.64.3 4.85-16.53zm-9.3-.74l7.9-.22-4.3-12.04z" stroke="#333" stroke-width=".05" fill="#333"/><use xlink:href="#e" transform="matrix(1,0,0,1,1091.4281312887615,1138.1955212889638) translate(0.005000000000000782 16.177777777777777)"/><defs><path fill="#fff" d="M185-189c-5-48-123-54-124 2 14 75 158 14 163 119 3 78-121 87-175 55-17-10-28-26-33-46l33-7c5 56 141 63 141-1 0-78-155-14-162-118-5-82 145-84 179-34 5 7 8 16 11 25" id="j"/><path fill="#fff" d="M59-47c-2 24 18 29 38 22v24C64 9 27 4 27-40v-127H5v-23h24l9-43h21v43h35v23H59v120" id="k"/><path fill="#fff" d="M100-194c62-1 85 37 85 99 1 63-27 99-86 99S16-35 15-95c0-66 28-99 85-99zM99-20c44 1 53-31 53-75 0-43-8-75-51-75s-53 32-53 75 10 74 51 75" id="l"/><path fill="#fff" d="M115-194c55 1 70 41 70 98S169 2 115 4C84 4 66-9 55-30l1 105H24l-1-265h31l2 30c10-21 28-34 59-34zm-8 174c40 0 45-34 45-75s-6-73-45-74c-42 0-51 32-51 76 0 43 10 73 51 73" id="m"/><g id="a"><use transform="matrix(0.05555555555555555,0,0,0.05555555555555555,0,0)" xlink:href="#j"/><use transform="matrix(0.05555555555555555,0,0,0.05555555555555555,13.333333333333332,0)" xlink:href="#k"/><use transform="matrix(0.05555555555555555,0,0,0.05555555555555555,18.888888888888886,0)" xlink:href="#l"/><use transform="matrix(0.05555555555555555,0,0,0.05555555555555555,30,0)" xlink:href="#m"/></g><path fill="#fff" d="M101-251c82-7 93 87 43 132L82-64C71-53 59-42 53-27h129V0H18c2-99 128-94 128-182 0-28-16-43-45-43s-46 15-49 41l-32-3c6-41 34-60 81-64" id="n"/><g id="b"><use transform="matrix(0.05555555555555555,0,0,0.05555555555555555,0,0)" xlink:href="#j"/><use transform="matrix(0.05555555555555555,0,0,0.05555555555555555,13.333333333333332,0)" xlink:href="#n"/></g><path fill="#fff" d="M27 0v-27h64v-190l-56 39v-29l58-41h29v221h61V0H27" id="o"/><g id="c"><use transform="matrix(0.05555555555555555,0,0,0.05555555555555555,0,0)" xlink:href="#j"/><use transform="matrix(0.05555555555555555,0,0,0.05555555555555555,13.333333333333332,0)" xlink:href="#o"/></g><path fill="#333" d="M33 0v-248h34V0H33" id="p"/><path fill="#333" d="M117-194c89-4 53 116 60 194h-32v-121c0-31-8-49-39-48C34-167 62-67 57 0H25l-1-190h30c1 10-1 24 2 32 11-22 29-35 61-36" id="q"/><path fill="#333" d="M59-47c-2 24 18 29 38 22v24C64 9 27 4 27-40v-127H5v-23h24l9-43h21v43h35v23H59v120" id="r"/><path fill="#333" d="M100-194c63 0 86 42 84 106H49c0 40 14 67 53 68 26 1 43-12 49-29l28 8c-11 28-37 45-77 45C44 4 14-33 15-96c1-61 26-98 85-98zm52 81c6-60-76-77-97-28-3 7-6 17-6 28h103" id="s"/><path fill="#333" d="M177-190C167-65 218 103 67 71c-23-6-38-20-44-43l32-5c15 47 100 32 89-28v-30C133-14 115 1 83 1 29 1 15-40 15-95c0-56 16-97 71-98 29-1 48 16 59 35 1-10 0-23 2-32h30zM94-22c36 0 50-32 50-73 0-42-14-75-50-75-39 0-46 34-46 75s6 73 46 73" id="t"/><path fill="#333" d="M114-163C36-179 61-72 57 0H25l-1-190h30c1 12-1 29 2 39 6-27 23-49 58-41v29" id="u"/><g id="d"><use transform="matrix(0.05555555555555555,0,0,0.05555555555555555,0,0)" xlink:href="#p"/><use transform="matrix(0.05555555555555555,0,0,0.05555555555555555,5.555555555555555,0)" xlink:href="#q"/><use transform="matrix(0.05555555555555555,0,0,0.05555555555555555,16.666666666666664,0)" xlink:href="#r"/><use transform="matrix(0.05555555555555555,0,0,0.05555555555555555,22.22222222222222,0)" xlink:href="#s"/><use transform="matrix(0.05555555555555555,0,0,0.05555555555555555,33.33333333333333,0)" xlink:href="#t"/><use transform="matrix(0.05555555555555555,0,0,0.05555555555555555,44.44444444444444,0)" xlink:href="#s"/><use transform="matrix(0.05555555555555555,0,0,0.05555555555555555,55.55555555555556,0)" xlink:href="#u"/></g><path fill="#333" d="M205 0l-28-72H64L36 0H1l101-248h38L239 0h-34zm-38-99l-47-123c-12 45-31 82-46 123h93" id="v"/><path fill="#333" d="M212-179c-10-28-35-45-73-45-59 0-87 40-87 99 0 60 29 101 89 101 43 0 62-24 78-52l27 14C228-24 195 4 139 4 59 4 22-46 18-125c-6-104 99-153 187-111 19 9 31 26 39 46" id="w"/><g id="e"><use transform="matrix(0.056172839506172835,0,0,0.056172839506172835,0,0)" xlink:href="#v"/><use transform="matrix(0.056172839506172835,0,0,0.056172839506172835,13.481481481481481,0)" xlink:href="#w"/></g><path fill="#333" d="M30-248c118-7 216 8 213 122C240-48 200 0 122 0H30v-248zM63-27c89 8 146-16 146-99s-60-101-146-95v194" id="x"/><g id="f"><use transform="matrix(0.056172839506172835,0,0,0.056172839506172835,0,0)" xlink:href="#v"/><use transform="matrix(0.056172839506172835,0,0,0.056172839506172835,13.481481481481481,0)" xlink:href="#x"/><use transform="matrix(0.056172839506172835,0,0,0.056172839506172835,28.030246913580243,0)" xlink:href="#x"/></g><g id="g"><use transform="matrix(0.056172839506172835,0,0,0.056172839506172835,0,0)" xlink:href="#p"/><use transform="matrix(0.056172839506172835,0,0,0.056172839506172835,5.617283950617283,0)" xlink:href="#q"/><use transform="matrix(0.056172839506172835,0,0,0.056172839506172835,16.851851851851848,0)" xlink:href="#r"/><use transform="matrix(0.056172839506172835,0,0,0.056172839506172835,22.469135802469133,0)" xlink:href="#s"/><use transform="matrix(0.056172839506172835,0,0,0.056172839506172835,33.703703703703695,0)" xlink:href="#t"/><use transform="matrix(0.056172839506172835,0,0,0.056172839506172835,44.938271604938265,0)" xlink:href="#s"/><use transform="matrix(0.056172839506172835,0,0,0.056172839506172835,56.172839506172835,0)" xlink:href="#u"/></g><path fill="#fff" d="M141-36C126-15 110 5 73 4 37 3 15-17 15-53c-1-64 63-63 125-63 3-35-9-54-41-54-24 1-41 7-42 31l-33-3c5-37 33-52 76-52 45 0 72 20 72 64v82c-1 20 7 32 28 27v20c-31 9-61-2-59-35zM48-53c0 20 12 33 32 33 41-3 63-29 60-74-43 2-92-5-92 41" id="y"/><path fill="#fff" d="M114-163C36-179 61-72 57 0H25l-1-190h30c1 12-1 29 2 39 6-27 23-49 58-41v29" id="z"/><g id="h"><use transform="matrix(0.05555555555555555,0,0,0.05555555555555555,0,0)" xlink:href="#j"/><use transform="matrix(0.05555555555555555,0,0,0.05555555555555555,13.333333333333332,0)" xlink:href="#k"/><use transform="matrix(0.05555555555555555,0,0,0.05555555555555555,18.888888888888886,0)" xlink:href="#y"/><use transform="matrix(0.05555555555555555,0,0,0.05555555555555555,30,0)" xlink:href="#z"/><use transform="matrix(0.05555555555555555,0,0,0.05555555555555555,36.61111111111111,0)" xlink:href="#k"/></g><path fill="#333" d="M233-177c-1 41-23 64-60 70L243 0h-38l-65-103H63V0H30v-248c88 3 205-21 203 71zM63-129c60-2 137 13 137-47 0-61-80-42-137-45v92" id="A"/><path fill="#333" d="M30 0v-248h187v28H63v79h144v27H63v87h162V0H30" id="B"/><path fill="#333" d="M185-189c-5-48-123-54-124 2 14 75 158 14 163 119 3 78-121 87-175 55-17-10-28-26-33-46l33-7c5 56 141 63 141-1 0-78-155-14-162-118-5-82 145-84 179-34 5 7 8 16 11 25" id="C"/><path fill="#333" d="M232-93c-1 65-40 97-104 97C67 4 28-28 28-90v-158h33c8 89-33 224 67 224 102 0 64-133 71-224h33v155" id="D"/><path fill="#333" d="M30 0v-248h33v221h125V0H30" id="E"/><path fill="#333" d="M127-220V0H93v-220H8v-28h204v28h-85" id="F"/><g id="i"><use transform="matrix(0.056172839506172835,0,0,0.056172839506172835,0,0)" xlink:href="#A"/><use transform="matrix(0.056172839506172835,0,0,0.056172839506172835,14.548765432098763,0)" xlink:href="#B"/><use transform="matrix(0.056172839506172835,0,0,0.056172839506172835,28.030246913580243,0)" xlink:href="#C"/><use transform="matrix(0.056172839506172835,0,0,0.056172839506172835,41.51172839506172,0)" xlink:href="#D"/><use transform="matrix(0.056172839506172835,0,0,0.056172839506172835,56.060493827160485,0)" xlink:href="#E"/><use transform="matrix(0.056172839506172835,0,0,0.056172839506172835,65.77839506172839,0)" xlink:href="#F"/></g></defs></g></svg>