<svg xmlns="http://www.w3.org/2000/svg" xmlns:xlink="http://www.w3.org/1999/xlink" xmlns:lucid="lucid" width="985" height="447"><g transform="translate(-295 -432)" lucid:page-tab-id="~QxNv6wkKDEo"><path d="M0 0h2213.33v1813.33H0z" fill="#fff"/><path d="M840 660c0 44.18-35.82 80-80 80s-80-35.82-80-80 35.82-80 80-80 80 35.82 80 80z" stroke="#000" stroke-opacity="0" fill="#8b90ff"/><use xlink:href="#a" transform="matrix(1,0,0,1,685,585) translate(62.77777777777778 76.9375)"/><path d="M554.15 480.83l-8.7 1.05-10.12 1.65-9.6 2-9.07 2.26-8.5 2.5-8 2.73-7.46 2.9-7 3.07-6.5 3.2-6.1 3.3-5.7 3.4-5.33 3.5-4.98 3.58-4.68 3.65-4.36 3.72-4.1 3.8-3.83 3.87-3.6 3.95-3.36 4.03-3.16 4.1-2.95 4.2-2.76 4.32-2.6 4.4-2.4 4.55-2.22 4.67-1.87 4.36-.9-.4 1.86-4.38 2.25-4.7 2.43-4.58 2.6-4.45 2.8-4.35 2.98-4.23 3.2-4.15 3.4-4.06 3.6-3.97 3.87-3.9 4.12-3.82 4.4-3.74 4.68-3.68 5.02-3.6 5.36-3.52 5.73-3.43 6.13-3.32 6.56-3.2 7-3.08 7.52-2.93 8.03-2.75 8.55-2.53 9.1-2.28 9.64-2 10.18-1.65 8.83-1.08zm82.82 2.7l10.9 2.38 10.36 2.73 9.75 3 9.08 3.2 8.4 3.4 7.72 3.48 7.06 3.56 6.44 3.58 5.85 3.6 5.3 3.56 4.83 3.54 4.36 3.5 3.95 3.44 3.58 3.4 3.24 3.34 2.92 3.3 2.65 3.23 2.4 3.2 2.16 3.14 1.95 3.1 1.76 3.1 1.58 3.05 1.4 3.03 1.25 3.03.92 2.5-.95.34-.9-2.47-1.24-2.98-1.38-3-1.56-3.03-1.74-3.05-1.93-3.08-2.15-3.1-2.37-3.17-2.63-3.2-2.9-3.27-3.2-3.3-3.55-3.38-3.92-3.42-4.33-3.47-4.78-3.5-5.28-3.56-5.83-3.56-6.4-3.56-7.03-3.53-7.68-3.46-8.36-3.36-9.04-3.2-9.7-3-10.32-2.7-10.86-2.37-7.7-1.34v-1z" stroke="#333" stroke-width=".05" fill="#333"/><path d="M415.22 569.6l-.13.3-.55-.03H414l.3-.67z" fill="#333"/><path d="M415.25 569.58l-.14.33h-1.13l.3-.74zm-1.2.27h1.02l.1-.25-.86-.37z" stroke="#333" stroke-width=".05" fill="#333"/><path d="M759.64 578.42l-7.73-12.85 9.04-2.1z" fill="#333"/><path d="M760 580l-8.88-14.76 10.38-2.4zm-7.3-14.1l6.57 10.95 1.1-12.73z" stroke="#333" stroke-width=".05" fill="#333"/><use xlink:href="#b" transform="matrix(1,0,0,1,554.1452637183904,466.94560766785116) translate(0 16)"/><use xlink:href="#c" transform="matrix(1,0,0,1,554.1452637183904,466.94560766785116) translate(42.833333333333336 16)"/><path d="M760.5 740.5l-.07 2.94-.2 3.32-.35 3.22-.46 3.13-.58 3.07-.7 3-.82 2.92-.94 2.88-1.06 2.84-1.18 2.82-1.32 2.78-1.44 2.77-1.6 2.75-1.74 2.75-1.9 2.75-2.1 2.75-2.3 2.76-2.5 2.78-2.72 2.8-3 2.8-3.28 2.83-3.6 2.85-3.96 2.88-4.36 2.9-4.8 2.9-5.3 2.9-5.84 2.9-6.46 2.88-7.13 2.82-7.88 2.74-8.66 2.6-9.48 2.44-10.34 2.2-11.18 1.88-.48.06v-1l.33-.05 11.15-1.88 10.3-2.2 9.45-2.4 8.6-2.6 7.84-2.74 7.1-2.8 6.4-2.86 5.82-2.88 5.26-2.9 4.77-2.87 4.3-2.87 3.93-2.85 3.57-2.83 3.25-2.8 2.97-2.78 2.7-2.77 2.47-2.74 2.25-2.72 2.07-2.72 1.9-2.7 1.7-2.73 1.58-2.72 1.43-2.72 1.3-2.75 1.16-2.78 1.03-2.8.93-2.85.8-2.9.7-2.94.57-3 .46-3.1.32-3.18.2-3.28.07-2.9zm-343.05 8.67l.85 3.03.97 3 1.1 2.97 1.26 2.97 1.4 2.95 1.53 2.95 1.7 2.96 1.9 3 2.08 2.98 2.3 3.02 2.52 3.05 2.78 3.08 3.06 3.13 3.37 3.16 3.72 3.2 4.1 3.27 4.54 3.3 5.02 3.32 5.56 3.37 6.16 3.37 6.82 3.4 7.54 3.34 8.3 3.3 9.15 3.18 10 3.02 10.83 2.78 4.1.87v1.02l-4.32-.92-10.88-2.8-10.04-3.02-9.18-3.2-8.35-3.3-7.58-3.37-6.85-3.4-6.2-3.4-5.6-3.4-5.05-3.35-4.58-3.3-4.15-3.3-3.75-3.23-3.4-3.2-3.1-3.15-2.8-3.12-2.55-3.08-2.32-3.05-2.1-3.03-1.9-3-1.75-3-1.56-3-1.4-3-1.27-3-1.12-3-1-3.05-.85-3.08-.72-3.1.97-.23z" stroke="#333" stroke-width=".05" fill="#333"/><path d="M760 740h.5v.53l-1-.02V740z" fill="#333"/><path d="M760 739.97h.53l-.02.58-1.04-.02.02-.57zm-.5.5l.96.03v-.48h-.94z" stroke="#333" stroke-width=".05" fill="#333"/><path d="M420.8 745.2l-9.23.94 3.15-14.66z" fill="#333"/><path d="M421.53 745.62l-10.6 1.1 3.62-16.85zm-9.32-.04l7.86-.8-5.17-11.7z" stroke="#333" stroke-width=".05" fill="#333"/><use xlink:href="#d" transform="matrix(1,0,0,1,530.1218305949526,826.3575610450405) translate(0.005000000000002558 16.177777777777777)"/><path d="M494.55 649.87c0 44.18-35.8 80-80 80-44.18 0-80-35.82-80-80s35.82-80 80-80c44.2 0 80 35.82 80 80z" stroke="#000" stroke-opacity="0" fill="#8b90ff"/><use xlink:href="#e" transform="matrix(1,0,0,1,339.55420907374287,574.8689169857764) translate(53.91666666666667 76.9375)"/><path d="M484.55 650c0 38.66-31.34 70-70 70s-70-31.34-70-70 31.34-70 70-70 70 31.34 70 70z" stroke="#333" fill-opacity="0"/><path d="M1200 660c0 44.18-35.82 80-80 80s-80-35.82-80-80 35.82-80 80-80 80 35.82 80 80z" stroke="#000" stroke-opacity="0" fill="#8b90ff"/><use xlink:href="#f" transform="matrix(1,0,0,1,1045,585) translate(54.44444444444444 76.9375)"/><path d="M911.58 473.78l-6.2.52-13.02 1.64-12.3 2.08-11.45 2.43-10.57 2.7-9.68 2.93-8.82 3.07-8 3.17-7.26 3.22-6.56 3.26-5.92 3.25-5.36 3.25-4.86 3.22-4.4 3.2-3.98 3.15-3.62 3.13-3.3 3.1-3 3.05-2.72 3.02-2.5 3-2.25 3-2.08 2.96-1.88 2.96-1.7 2.95-1.55 2.96-1.4 2.98-1.27 2.98-1.1 3-1 3.06-.86 3.08-.74 3.13-.6 3.2-.5 3.25-.34 3.34-.23 3.44-.06 3.05h-1l.07-3.1.22-3.46.35-3.38.5-3.3.6-3.24.75-3.17.87-3.12 1-3.1 1.13-3.03 1.28-3.03 1.4-3 1.58-3 1.73-3 1.9-3 2.08-3 2.3-3 2.5-3.05 2.76-3.06 3.02-3.1 3.33-3.1 3.64-3.16 4.02-3.18 4.43-3.22 4.88-3.25 5.4-3.26 5.96-3.3 6.6-3.26 7.3-3.24 8.04-3.2 8.86-3.07 9.73-2.93 10.6-2.73 11.5-2.44 12.34-2.08 13.08-1.65 6.3-.52zm63.17-.47l13.07 1.66 12.33 2.08 11.5 2.44 10.6 2.72 9.73 2.94 8.86 3.08 8.05 3.18 7.28 3.25 6.6 3.27 5.96 3.27 5.4 3.26 4.88 3.25 4.43 3.22 4.02 3.2 3.65 3.14 3.32 3.12 3.03 3.1 2.75 3.05 2.52 3.03 2.3 3.02 2.08 3 1.9 3 1.72 3 1.57 3 1.43 3 1.27 3.02 1.13 3.05 1 3.08.87 3.13.75 3.17.1.6-.97.2-.1-.6-.74-3.12-.86-3.08-1-3.04-1.1-3-1.27-3-1.38-2.96-1.55-2.96-1.7-2.96-1.9-2.96-2.05-2.97-2.27-2.98-2.48-3.02-2.73-3.03-3-3.06-3.3-3.1-3.6-3.12-4-3.16-4.4-3.2-4.84-3.2-5.36-3.26-5.93-3.26-6.55-3.25-7.25-3.22-8-3.17-8.83-3.07-9.68-2.93-10.58-2.72-11.46-2.43-12.28-2.07-13.03-1.65-6.22-.52v-1z" stroke="#333" stroke-width=".05" fill="#333"/><path d="M760.5 579.5v.52l-.5-.02h-.5v-.53z" fill="#333"/><path d="M760.54 579.47l-.02.57h-1.05l.02-.6zm-1 .5h.46l.48.02v-.48l-.94-.02z" stroke="#333" stroke-width=".05" fill="#333"/><path d="M1119.84 578.4l-6.03-13.74 9.23-.93z" fill="#333"/><path d="M1120 580l-6.93-15.77 10.6-1.06zm-5.46-14.9l5.14 11.68 2.72-12.48z" stroke="#333" stroke-width=".05" fill="#333"/><use xlink:href="#g" transform="matrix(1,0,0,1,911.5787008778515,459.9406086842692) translate(0.004999999999999005 16.177777777777777)"/><defs><path fill="#fff" d="M185-189c-5-48-123-54-124 2 14 75 158 14 163 119 3 78-121 87-175 55-17-10-28-26-33-46l33-7c5 56 141 63 141-1 0-78-155-14-162-118-5-82 145-84 179-34 5 7 8 16 11 25" id="h"/><path fill="#fff" d="M27 0v-27h64v-190l-56 39v-29l58-41h29v221h61V0H27" id="i"/><g id="a"><use transform="matrix(0.05555555555555555,0,0,0.05555555555555555,0,0)" xlink:href="#h"/><use transform="matrix(0.05555555555555555,0,0,0.05555555555555555,13.333333333333332,0)" xlink:href="#i"/></g><path fill="#333" d="M33 0v-248h34V0H33" id="j"/><path fill="#333" d="M190 0L58-211 59 0H30v-248h39L202-35l-2-213h31V0h-41" id="k"/><path fill="#333" d="M127-220V0H93v-220H8v-28h204v28h-85" id="l"/><g id="b"><use transform="matrix(0.05555555555555555,0,0,0.05555555555555555,0,0)" xlink:href="#j"/><use transform="matrix(0.05555555555555555,0,0,0.05555555555555555,5.555555555555555,0)" xlink:href="#k"/><use transform="matrix(0.05555555555555555,0,0,0.05555555555555555,19.944444444444443,0)" xlink:href="#l"/></g><g id="c"><use transform="matrix(0.05555555555555555,0,0,0.05555555555555555,0,0)" xlink:href="#j"/><use transform="matrix(0.05555555555555555,0,0,0.05555555555555555,5.555555555555555,0)" xlink:href="#k"/><use transform="matrix(0.05555555555555555,0,0,0.05555555555555555,19.944444444444443,0)" xlink:href="#l"/></g><path fill="#333" d="M140-251c81 0 123 46 123 126C263-46 219 4 140 4 59 4 17-45 17-125s42-126 123-126zm0 227c63 0 89-41 89-101s-29-99-89-99c-61 0-89 39-89 99S79-25 140-24" id="m"/><path fill="#333" d="M-5 72V49h209v23H-5" id="n"/><path fill="#333" d="M137 0h-34L2-248h35l83 218 83-218h36" id="o"/><path fill="#333" d="M205 0l-28-72H64L36 0H1l101-248h38L239 0h-34zm-38-99l-47-123c-12 45-31 82-46 123h93" id="p"/><path fill="#333" d="M30 0v-248h33v221h125V0H30" id="q"/><path fill="#333" d="M30-248c118-7 216 8 213 122C240-48 200 0 122 0H30v-248zM63-27c89 8 146-16 146-99s-60-101-146-95v194" id="r"/><g id="d"><use transform="matrix(0.056172839506172835,0,0,0.056172839506172835,0,0)" xlink:href="#k"/><use transform="matrix(0.056172839506172835,0,0,0.056172839506172835,14.548765432098763,0)" xlink:href="#m"/><use transform="matrix(0.056172839506172835,0,0,0.056172839506172835,30.277160493827157,0)" xlink:href="#l"/><use transform="matrix(0.056172839506172835,0,0,0.056172839506172835,42.579012345679004,0)" xlink:href="#n"/><use transform="matrix(0.056172839506172835,0,0,0.056172839506172835,53.813580246913574,0)" xlink:href="#o"/><use transform="matrix(0.056172839506172835,0,0,0.056172839506172835,65.77839506172839,0)" xlink:href="#p"/><use transform="matrix(0.056172839506172835,0,0,0.056172839506172835,79.25987654320987,0)" xlink:href="#q"/><use transform="matrix(0.056172839506172835,0,0,0.056172839506172835,90.49444444444444,0)" xlink:href="#j"/><use transform="matrix(0.056172839506172835,0,0,0.056172839506172835,96.11172839506172,0)" xlink:href="#r"/></g><path fill="#fff" d="M59-47c-2 24 18 29 38 22v24C64 9 27 4 27-40v-127H5v-23h24l9-43h21v43h35v23H59v120" id="s"/><path fill="#fff" d="M141-36C126-15 110 5 73 4 37 3 15-17 15-53c-1-64 63-63 125-63 3-35-9-54-41-54-24 1-41 7-42 31l-33-3c5-37 33-52 76-52 45 0 72 20 72 64v82c-1 20 7 32 28 27v20c-31 9-61-2-59-35zM48-53c0 20 12 33 32 33 41-3 63-29 60-74-43 2-92-5-92 41" id="t"/><path fill="#fff" d="M114-163C36-179 61-72 57 0H25l-1-190h30c1 12-1 29 2 39 6-27 23-49 58-41v29" id="u"/><g id="e"><use transform="matrix(0.05555555555555555,0,0,0.05555555555555555,0,0)" xlink:href="#h"/><use transform="matrix(0.05555555555555555,0,0,0.05555555555555555,13.333333333333332,0)" xlink:href="#s"/><use transform="matrix(0.05555555555555555,0,0,0.05555555555555555,18.888888888888886,0)" xlink:href="#t"/><use transform="matrix(0.05555555555555555,0,0,0.05555555555555555,30,0)" xlink:href="#u"/><use transform="matrix(0.05555555555555555,0,0,0.05555555555555555,36.61111111111111,0)" xlink:href="#s"/></g><path fill="#fff" d="M100-194c62-1 85 37 85 99 1 63-27 99-86 99S16-35 15-95c0-66 28-99 85-99zM99-20c44 1 53-31 53-75 0-43-8-75-51-75s-53 32-53 75 10 74 51 75" id="v"/><path fill="#fff" d="M115-194c55 1 70 41 70 98S169 2 115 4C84 4 66-9 55-30l1 105H24l-1-265h31l2 30c10-21 28-34 59-34zm-8 174c40 0 45-34 45-75s-6-73-45-74c-42 0-51 32-51 76 0 43 10 73 51 73" id="w"/><g id="f"><use transform="matrix(0.05555555555555555,0,0,0.05555555555555555,0,0)" xlink:href="#h"/><use transform="matrix(0.05555555555555555,0,0,0.05555555555555555,13.333333333333332,0)" xlink:href="#s"/><use transform="matrix(0.05555555555555555,0,0,0.05555555555555555,18.888888888888886,0)" xlink:href="#v"/><use transform="matrix(0.05555555555555555,0,0,0.05555555555555555,30,0)" xlink:href="#w"/></g><g id="g"><use transform="matrix(0.056172839506172835,0,0,0.056172839506172835,0,0)" xlink:href="#o"/><use transform="matrix(0.056172839506172835,0,0,0.056172839506172835,11.964814814814815,0)" xlink:href="#p"/><use transform="matrix(0.056172839506172835,0,0,0.056172839506172835,25.446296296296296,0)" xlink:href="#q"/><use transform="matrix(0.056172839506172835,0,0,0.056172839506172835,36.680864197530866,0)" xlink:href="#j"/><use transform="matrix(0.056172839506172835,0,0,0.056172839506172835,42.29814814814815,0)" xlink:href="#r"/></g></defs></g></svg>